<?xml version="1.0" encoding="UTF-8" standalone="no"?><svg xmlns:svg="http://www.w3.org/2000/svg" xmlns="http://www.w3.org/2000/svg" version="1.1" style="overflow:visible" viewBox="-250 -250 500 500" height="500px" width="500px"><rect fill-opacity="0" fill="rgb(0,0,0)" height="500" width="500" y="-250" x="-250" /><svg version="1.1" y="-250" x="-250" viewBox="-250 -250 500 500" height="500px" width="500px" style="overflow:visible"><g transform="rotate(0,0,0)" stroke-linejoin="round" fill="#fff"><path stroke-linecap="round" stroke-linejoin="round" stroke-width="15" stroke-opacity="1" stroke="rgb(45,175,255)" fill="rgb(45,175,255)" d="m146.25 0a146.25 146.25 0 0 1-146.25 146.25a146.25 146.25 0 0 1-146.25-146.25a146.25 146.25 0 0 1 146.25-146.25a146.25 146.25 0 0 1 146.25 146.25z" /></g></svg><svg version="1.1" y="-246" x="-250" viewBox="-250 -250 500 500" height="500px" width="500px" style="overflow:visible"><g transform="rotate(0,0,0)" stroke-linejoin="round" fill="#fff"><path stroke-linecap="butt" stroke-linejoin="round" stroke-width="0" stroke-opacity="0" stroke="rgb(0,0,0)" fill="rgb(255,255,255)" d="m85.58-81.15l-105.08 105.66l-66.08-66.445l-28.166 28.321l94.246 94.766l133.25-133.98z" /></g></svg></svg>